<?xml version="1.0" encoding="UTF-8" standalone="no"?>
<svg
   xmlns:dc="http://purl.org/dc/elements/1.1/"
   xmlns:cc="http://creativecommons.org/ns#"
   xmlns:rdf="http://www.w3.org/1999/02/22-rdf-syntax-ns#"
   xmlns:svg="http://www.w3.org/2000/svg"
   xmlns="http://www.w3.org/2000/svg"
   xmlns:sodipodi="http://sodipodi.sourceforge.net/DTD/sodipodi-0.dtd"
   xmlns:inkscape="http://www.inkscape.org/namespaces/inkscape"
   version="1.1"
   id="svg2"
   viewBox="0 0 110 48.500001"
   height="48.5"
   width="110"
   inkscape:version="0.92.2 (5c3e80d, 2017-08-06)"
   sodipodi:docname="clubs.svg">
  <sodipodi:namedview
     pagecolor="#ffffff"
     bordercolor="#666666"
     borderopacity="1"
     objecttolerance="10"
     gridtolerance="10"
     guidetolerance="10"
     inkscape:pageopacity="0"
     inkscape:pageshadow="2"
     inkscape:window-width="2560"
     inkscape:window-height="1403"
     id="namedview4238"
     showgrid="false"
     inkscape:zoom="6.1636365"
     inkscape:cx="130.29686"
     inkscape:cy="11.166209"
     inkscape:window-x="765"
     inkscape:window-y="2197"
     inkscape:window-maximized="1"
     inkscape:current-layer="svg2" />
  <defs
     id="defs4" />
  <metadata
     id="metadata7">
    <rdf:RDF>
      <cc:Work
         rdf:about="">
        <dc:format>image/svg+xml</dc:format>
        <dc:type
           rdf:resource="http://purl.org/dc/dcmitype/StillImage" />
        <dc:title />
      </cc:Work>
    </rdf:RDF>
  </metadata>
  <g
     style="font-style:normal;font-weight:normal;font-size:17.5232029px;line-height:1000%;font-family:sans-serif;letter-spacing:0px;word-spacing:0px;fill:#ffffff;fill-opacity:1;stroke:none;stroke-width:1px;stroke-linecap:butt;stroke-linejoin:miter;stroke-opacity:1"
     id="text4190">
    <path
       d="m 5.0116472,32.483794 c -2.7336197,0 -5.011636065852,2.155354 -5.011636065852,6.23826 0,4.065383 2.120307565852,6.255783 5.046682465852,6.255783 1.6296578,0 2.8037124,-0.665881 3.4520709,-1.349286 L 7.6576508,42.559635 c -0.6834049,0.508173 -1.4193794,1.016346 -2.5583876,1.016346 -1.8749827,0 -3.3294086,-1.36681 -3.3294086,-4.853927 0,-3.644826 1.5245187,-4.87145 3.3469318,-4.87145 0.8411137,0 1.5770882,0.280371 2.330586,0.893683 L 8.3585789,33.675372 C 7.3948028,32.904351 6.5361658,32.483794 5.0116472,32.483794 Z"
       style="font-style:normal;font-variant:normal;font-weight:normal;font-stretch:normal;font-family:'Fira Sans';-inkscape-font-specification:'Fira Sans';fill:#ffffff"
       id="path4271" />
    <path
       d="m 13.50246,35.322553 c -1.033869,0 -2.050214,0.210278 -3.189223,0.630835 l 0.403034,1.174055 c 0.946253,-0.315418 1.80489,-0.49065 2.488295,-0.49065 1.279194,0 1.927552,0.49065 1.927552,1.822413 l 0,0.683405 -1.419379,0 c -2.575911,0 -4.0653834,1.068915 -4.0653834,3.049037 0,1.647181 1.1039614,2.786189 2.9438984,2.786189 1.121485,0 2.102784,-0.420556 2.751143,-1.384333 0.280371,0.911207 0.87616,1.279194 1.804889,1.384333 l 0.367988,-1.121484 C 17.042147,43.68112 16.744253,43.418272 16.744253,42.612205 l 0,-4.223092 c 0,-1.927552 -1.016346,-3.06656 -3.241793,-3.06656 z m 1.629658,4.888973 0,2.120308 c -0.525696,0.963776 -1.226624,1.436902 -2.172877,1.436902 -1.051392,0 -1.594611,-0.578265 -1.594611,-1.664704 0,-1.26167 0.858636,-1.892506 2.558387,-1.892506 l 1.209101,0 z"
       style="font-style:normal;font-variant:normal;font-weight:normal;font-stretch:normal;font-family:'Fira Sans';-inkscape-font-specification:'Fira Sans';fill:#ffffff"
       id="path4273" />
    <path
       d="m 21.456625,35.532831 -1.384333,0 0,9.234728 1.612135,0 0,-6.553678 c 0.613312,-0.981299 1.174055,-1.629658 2.172877,-1.629658 0.700928,0 1.296717,0.403034 1.296717,1.787367 l 0,6.395969 1.612135,0 0,-6.553678 c 0.630835,-0.981299 1.174054,-1.629658 2.172877,-1.629658 0.700928,0 1.296717,0.403034 1.296717,1.787367 l 0,6.395969 1.612135,0 0,-6.623771 c 0,-1.734797 -0.998823,-2.821235 -2.505818,-2.821235 -1.244148,0 -2.085261,0.665881 -2.751143,1.664704 -0.350464,-1.051392 -1.191578,-1.664704 -2.330586,-1.664704 -1.209101,0 -2.050215,0.630835 -2.663527,1.559565 l -0.140186,-1.349287 z"
       style="font-style:normal;font-variant:normal;font-weight:normal;font-stretch:normal;font-family:'Fira Sans';-inkscape-font-specification:'Fira Sans';fill:#ffffff"
       id="path4275" />
    <path
       d="m 36.481402,35.532831 -1.384333,0 0,12.96717 1.612135,-0.192755 0,-4.380801 c 0.595788,0.718452 1.419379,1.051392 2.418202,1.051392 2.383155,0 3.627303,-2.032691 3.627303,-4.836404 0,-2.908851 -0.963777,-4.81888 -3.417025,-4.81888 -1.051392,0 -2.050215,0.508173 -2.73362,1.454426 l -0.122662,-1.244148 z m 0.227802,2.505818 c 0.490649,-0.735974 1.244147,-1.436902 2.225446,-1.436902 1.384333,0 2.085261,1.139008 2.085261,3.539686 0,2.418202 -0.806067,3.522164 -2.278016,3.522164 -0.841114,0 -1.559565,-0.403033 -2.032691,-1.121485 l 0,-4.503463 z"
       style="font-style:normal;font-variant:normal;font-weight:normal;font-stretch:normal;font-family:'Fira Sans';-inkscape-font-specification:'Fira Sans';fill:#ffffff"
       id="path4277" />
    <path
       d="m 50.758433,42.121555 c -0.560742,0.92873 -1.31424,1.594612 -2.313062,1.594612 -0.998823,0 -1.41938,-0.473127 -1.41938,-1.734797 l 0,-6.448539 -1.612134,0 0,6.623771 c 0,1.80489 0.963776,2.821235 2.57591,2.821235 1.314241,0 2.172878,-0.525696 2.873806,-1.647181 l 0.122662,1.436903 1.384333,0 0,-9.234728 -1.612135,0 0,6.588724 z"
       style="font-style:normal;font-variant:normal;font-weight:normal;font-stretch:normal;font-family:'Fira Sans';-inkscape-font-specification:'Fira Sans';fill:#ffffff"
       id="path4279" />
    <path
       d="m 58.206341,35.322553 c -1.910029,0 -3.329408,1.068915 -3.329408,2.523341 0,1.31424 0.788544,2.172877 2.786189,2.698573 1.787367,0.473127 2.24297,0.823591 2.24297,1.787367 0,0.806067 -0.771021,1.349286 -1.980122,1.349286 -0.998822,0 -1.857459,-0.33294 -2.558387,-0.928729 l -0.893684,1.016345 c 0.806068,0.700929 1.927553,1.209101 3.487118,1.209101 1.874982,0 3.644826,-0.87616 3.644826,-2.803712 0,-1.612135 -1.121485,-2.383156 -3.066561,-2.873805 -1.489472,-0.385511 -1.980122,-0.735975 -1.980122,-1.489472 0,-0.735975 0.648359,-1.209101 1.699751,-1.209101 0.858637,0 1.577088,0.262848 2.383156,0.841113 l 0.700928,-1.068915 c -0.87616,-0.665882 -1.839937,-1.051392 -3.136654,-1.051392 z"
       style="font-style:normal;font-variant:normal;font-weight:normal;font-stretch:normal;font-family:'Fira Sans';-inkscape-font-specification:'Fira Sans';fill:#ffffff"
       id="path4281" />
    <path
       d="m 72.845609,32.483794 c -2.73362,0 -5.011636,2.155354 -5.011636,6.23826 0,4.065383 2.120307,6.255783 5.046682,6.255783 1.629658,0 2.803713,-0.665881 3.452071,-1.349286 l -0.841114,-1.068916 c -0.683405,0.508173 -1.419379,1.016346 -2.558387,1.016346 -1.874983,0 -3.329409,-1.36681 -3.329409,-4.853927 0,-3.644826 1.524519,-4.87145 3.346932,-4.87145 0.841114,0 1.577088,0.280371 2.330586,0.893683 l 0.911206,-1.068915 c -0.963776,-0.771021 -1.822413,-1.191578 -3.346931,-1.191578 z"
       style="font-style:normal;font-variant:normal;font-weight:normal;font-stretch:normal;font-family:'Fira Sans';-inkscape-font-specification:'Fira Sans';fill:#ffffff"
       id="path4283" />
    <path
       d="m 79.881998,31.625157 -1.612135,0.192755 0,11.127234 c 0,1.331763 0.665882,2.032691 1.839936,2.032691 0.473127,0 0.92873,-0.105139 1.36681,-0.315417 l -0.420557,-1.121485 c -0.175232,0.07009 -0.367987,0.105139 -0.595788,0.105139 -0.420557,0 -0.578266,-0.245325 -0.578266,-0.735974 l 0,-11.284943 z"
       style="font-style:normal;font-variant:normal;font-weight:normal;font-stretch:normal;font-family:'Fira Sans';-inkscape-font-specification:'Fira Sans';fill:#ffffff"
       id="path4285" />
    <path
       d="m 88.748191,42.121555 c -0.560743,0.92873 -1.31424,1.594612 -2.313063,1.594612 -0.998822,0 -1.419379,-0.473127 -1.419379,-1.734797 l 0,-6.448539 -1.612135,0 0,6.623771 c 0,1.80489 0.963776,2.821235 2.575911,2.821235 1.31424,0 2.172877,-0.525696 2.873805,-1.647181 l 0.122663,1.436903 1.384333,0 0,-9.234728 -1.612135,0 0,6.588724 z"
       style="font-style:normal;font-variant:normal;font-weight:normal;font-stretch:normal;font-family:'Fira Sans';-inkscape-font-specification:'Fira Sans';fill:#ffffff"
       id="path4287" />
    <path
       d="m 95.302416,31.625157 -1.612135,0.192755 0,12.949647 1.419379,0 0.157709,-1.016346 c 0.630836,0.771021 1.436903,1.226624 2.453249,1.226624 2.24297,0 3.627302,-1.945075 3.627302,-4.836404 0,-3.084083 -1.349286,-4.81888 -3.434547,-4.81888 -1.121485,0 -1.980122,0.508173 -2.610957,1.36681 l 0,-5.064206 z m 0,6.413492 c 0.473126,-0.735974 1.139008,-1.436902 2.155354,-1.436902 1.296717,0 2.155354,0.911206 2.155354,3.539686 0,2.523342 -0.92873,3.557211 -2.278017,3.557211 -0.82359,0 -1.559565,-0.508173 -2.032691,-1.244148 l 0,-4.415847 z"
       style="font-style:normal;font-variant:normal;font-weight:normal;font-stretch:normal;font-family:'Fira Sans';-inkscape-font-specification:'Fira Sans';fill:#ffffff"
       id="path4289" />
    <path
       d="m 106.6005,35.322553 c -1.91003,0 -3.32941,1.068915 -3.32941,2.523341 0,1.31424 0.78855,2.172877 2.78619,2.698573 1.78737,0.473127 2.24297,0.823591 2.24297,1.787367 0,0.806067 -0.77102,1.349286 -1.98012,1.349286 -0.99882,0 -1.85746,-0.33294 -2.55839,-0.928729 l -0.89368,1.016345 c 0.80607,0.700929 1.92755,1.209101 3.48712,1.209101 1.87498,0 3.64482,-0.87616 3.64482,-2.803712 0,-1.612135 -1.12148,-2.383156 -3.06656,-2.873805 -1.48947,-0.385511 -1.98012,-0.735975 -1.98012,-1.489472 0,-0.735975 0.64836,-1.209101 1.69975,-1.209101 0.85864,0 1.57709,0.262848 2.38316,0.841113 l 0.70093,-1.068915 c -0.87616,-0.665882 -1.83994,-1.051392 -3.13666,-1.051392 z"
       style="font-style:normal;font-variant:normal;font-weight:normal;font-stretch:normal;font-family:'Fira Sans';-inkscape-font-specification:'Fira Sans';fill:#ffffff"
       id="path4291" />
  </g>
  <style
     id="style3969"
     type="text/css">
	.st0{fill:#FFFFFF;}
</style>
  <g
     id="g3975"
     transform="matrix(0.0548599,0,0,0.04907366,0.29721581,0.13431391)">
    <rect
       id="rect3971"
       height="571.90002"
       width="2000"
       y="0"
       x="0" />
    <path
       id="path3973"
       d="m 1910.2,410.5 c -3.9,1.1 -7.2,1.7 -10.5,1.7 -11.7,0 -17.2,-5 -17.2,-19.4 V 284.1 c 0,-57.1 -45.5,-84.9 -99.3,-84.9 -41.1,0 -63.2,5 -107.1,22.7 l -9.8,57.6 57.1,6.1 8.1,-28.2 c 11.7,-6.1 23.3,-7.2 38.3,-7.2 40.5,0 41.1,30.5 41.1,56 v 8.3 c -12.8,-1.7 -27.2,-2.2 -41.1,-2.2 -57.1,0 -116.5,14.4 -116.5,76 0,52.1 41,71.6 77.1,71.6 40.5,0 66,-24.4 80.4,-49.9 3.3,30.5 21.6,49.9 54.9,49.9 15.5,0 31.6,-4.4 44.9,-11.7 z m -153.6,-1.6 c -21.6,0 -29.4,-12.8 -29.4,-28.9 0,-27.2 22.2,-34.4 47.7,-34.4 11.6,0 24.4,1.7 36.1,3.3 -1.7,41.7 -28.9,60 -54.4,60 z M 1660.5,72.7 1552.3,454.4 h -70.5 L 1590,72.7 Z m -145.3,0 -108.2,381.7 h -70.4 L 1444.8,72.7 Z m -300.4,131.5 h 74.9 V 294 h -74.9 z m 0,160.3 h 74.9 v 89.9 h -74.9 z m -109,-3.3 56.6,5.5 -15.5,87.7 H 928.3 l -7.2,-37.7 137.6,-158.1 h -78.2 l -11.1,38.8 -51.6,-5.6 8.9,-87.7 h 219.7 l 5.6,37.7 -138.8,158.2 h 81 z m -358.5,-162 c -89.9,0 -134.3,60.5 -134.3,133.7 0,79.9 53.3,127 130.4,127 79.9,0 137.6,-50.5 137.6,-130.4 0,-69.9 -43.9,-130.3 -133.7,-130.3 z M 745.6,405 c -38.8,0 -58.8,-33.3 -58.8,-76.6 0,-47.2 22.7,-74.3 59.4,-74.3 33.8,0 61,22.7 61,73.2 0,47.7 -24.4,77.7 -61.6,77.7 z m -197,-5 h 33.3 v 54.4 H 477 V 313.5 c 0,-43.3 -14.4,-59.9 -42.7,-59.9 -34.4,0 -48.3,24.4 -48.3,59.4 v 87 h 33.3 v 54.4 H 314.5 V 313.5 c 0,-43.3 -14.4,-59.9 -42.7,-59.9 -34.4,0 -48.3,24.4 -48.3,59.4 v 87 h 47.7 v 54.4 H 118.7 V 400 H 152 V 258.5 h -33.3 v -54.4 h 104.8 v 37.7 c 15,-26.6 41.1,-42.7 76,-42.7 36.1,0 69.3,17.2 81.6,53.8 13.9,-33.3 42.2,-53.8 81.6,-53.8 44.9,0 86,27.2 86,86.5 V 400 Z"
       class="st0"
       inkscape:connector-curvature="0"
       style="fill:#ffffff" />
  </g>
</svg>
