<?xml version="1.0" encoding="UTF-8" standalone="no"?>
<svg
   xmlns:dc="http://purl.org/dc/elements/1.1/"
   xmlns:cc="http://creativecommons.org/ns#"
   xmlns:rdf="http://www.w3.org/1999/02/22-rdf-syntax-ns#"
   xmlns:svg="http://www.w3.org/2000/svg"
   xmlns="http://www.w3.org/2000/svg"
   xmlns:sodipodi="http://sodipodi.sourceforge.net/DTD/sodipodi-0.dtd"
   xmlns:inkscape="http://www.inkscape.org/namespaces/inkscape"
   version="1.1"
   id="svg2"
   viewBox="0 0 110 48.500001"
   height="48.5"
   width="110"
   inkscape:version="0.91 r13725"
   sodipodi:docname="clubs.svg">
  <sodipodi:namedview
     pagecolor="#ffffff"
     bordercolor="#666666"
     borderopacity="1"
     objecttolerance="10"
     gridtolerance="10"
     guidetolerance="10"
     inkscape:pageopacity="0"
     inkscape:pageshadow="2"
     inkscape:window-width="1920"
     inkscape:window-height="1016"
     id="namedview4238"
     showgrid="false"
     inkscape:zoom="12.327273"
     inkscape:cx="55"
     inkscape:cy="24.25"
     inkscape:window-x="0"
     inkscape:window-y="27"
     inkscape:window-maximized="1"
     inkscape:current-layer="svg2" />
  <defs
     id="defs4" />
  <metadata
     id="metadata7">
    <rdf:RDF>
      <cc:Work
         rdf:about="">
        <dc:format>image/svg+xml</dc:format>
        <dc:type
           rdf:resource="http://purl.org/dc/dcmitype/StillImage" />
        <dc:title />
      </cc:Work>
    </rdf:RDF>
  </metadata>
  <g
     transform="matrix(0.12317365,0,0,-0.12317365,-14.627117,43.4394)"
     id="g4163">
    <g
       transform="scale(0.1,0.1)"
       id="g4165">
      <path
         inkscape:connector-curvature="0"
         id="path4167"
         style="fill:#4e4f57;fill-opacity:1;fill-rule:nonzero;stroke:none"
         d="m 1555.26,2854.22 c 27.05,-41.76 38.98,-79.01 54.09,-157.6 105.79,103.26 236.24,157.6 378.62,157.6 128.59,0 234.12,-41.76 315.78,-126.99 22,-21.36 43.22,-48.92 61.52,-75.97 142.1,145.55 269.37,202.96 439.86,202.96 121.42,0 236.5,-36.31 306.77,-96.77 87.76,-75.84 115.59,-167.02 115.59,-379.3 l 0,-1104.43 -394.52,0 0,1025.3 c 0,185.86 -22,221.8 -127.8,221.8 -75.83,0 -182.41,-51.72 -269.91,-130.59 l 0,-1116.51 -384.99,0 0,1010.73 c 0,193.8 -28.09,239.3 -141.04,239.3 -75.04,0 -178.98,-38.87 -266.47,-118.14 l 0,-1131.89 -397.18,0 0,1083.38 c 0,224.31 -15.38,321.21 -58.06,397.42 l 367.74,99.7" />
      <path
         inkscape:connector-curvature="0"
         id="path4169"
         style="fill:#4e4f57;fill-opacity:1;fill-rule:nonzero;stroke:none"
         d="m 3948.95,2399.52 c -27.85,-82.2 -42.68,-191.31 -42.68,-346.15 0,-178.56 18.28,-312.74 51.42,-391.34 36.59,-84.99 128.08,-127.41 206.27,-127.41 176.07,0 251.37,157.62 251.37,524.7 0,209.49 -27.32,346.29 -81.66,416.27 -39,51.18 -102.35,81.66 -175.53,81.66 -97.3,0 -176.32,-60.43 -209.19,-157.73 z m 730.97,224.29 c 124.09,-145.56 179.51,-315.37 179.51,-567.14 0,-266.99 -61.24,-449.38 -195.15,-600.79 -117.71,-133.37 -272.82,-215.57 -511.98,-215.57 -422.36,0 -697.84,315.66 -697.84,803.91 0,488.68 278.39,813.46 697.84,813.46 221.39,0 394.27,-76.11 527.62,-233.87" />
      <path
         inkscape:connector-curvature="0"
         id="path4171"
         style="fill:#4e4f57;fill-opacity:1;fill-rule:nonzero;stroke:none"
         d="m 6167.08,2827.17 0,-279.16 -686.16,-992.04 712.95,0 -97.31,-282.25 -1143.26,0 0,251.75 730.46,1016.4 -669.5,0 0,285.3 1152.82,0" />
      <path
         inkscape:connector-curvature="0"
         id="path4173"
         style="fill:#4e4f57;fill-opacity:1;fill-rule:nonzero;stroke:none"
         d="m 6806.9,2863.77 0,-1590.05 -406.48,0 0,1526.16 406.48,63.89 z m 47.71,391.09 c 0,-139.76 -111.1,-251.36 -251.61,-251.36 -136.03,0 -247.9,111.6 -247.9,251.36 0,139.46 115.6,252.01 254.76,252.01 136.3,0 244.75,-112.55 244.75,-252.01" />
      <path
         inkscape:connector-curvature="0"
         id="path4175"
         style="fill:#4e4f57;fill-opacity:1;fill-rule:nonzero;stroke:none"
         d="m 7547.15,3115.1 0,-1210.35 c 0,-267.38 3.19,-303.32 27.59,-345.74 15.37,-27.56 48.24,-42.43 82.19,-42.43 14.58,0 23.32,0 45.33,5.59 l 69.47,-242.46 c -69.47,-27.18 -154.57,-42.33 -242.58,-42.33 -173.42,0 -312.88,81.7 -361.16,211.88 -30.48,79 -37.11,127.78 -37.11,349.17 l 0,1159.48 c 0,203.09 -5.28,327.18 -20.43,467.3 l 415.77,93.99 c 14.57,-84.86 20.93,-185.07 20.93,-404.1" />
      <path
         inkscape:connector-curvature="0"
         id="path4177"
         style="fill:#4e4f57;fill-opacity:1;fill-rule:nonzero;stroke:none"
         d="m 8390.28,3115.1 0,-1210.35 c 0,-267.38 3.47,-303.32 28.4,-345.74 14.3,-27.56 47.17,-42.43 81.13,-42.43 15.37,0 24.65,0 46.12,5.59 l 69.22,-242.46 c -69.22,-27.18 -154.34,-42.33 -242.63,-42.33 -173.11,0 -312.84,81.7 -361.36,211.88 -31.02,79 -36.07,127.78 -36.07,349.17 l 0,1159.48 c 0,203.09 -6.08,327.18 -21.74,467.3 l 415.2,93.99 c 16.72,-84.86 21.73,-185.07 21.73,-404.1" />
      <path
         inkscape:connector-curvature="0"
         id="path4179"
         style="fill:#4e4f57;fill-opacity:1;fill-rule:nonzero;stroke:none"
         d="m 9555.05,1953.27 c -281.05,0 -379.67,-51.17 -379.67,-237.03 0,-120.89 76.89,-202.82 180.01,-202.82 75.57,0 151.95,39.5 212.14,106.05 l 6.63,333.8 -19.11,0 z m -526.84,816.12 c 151.15,63.9 281.09,90.95 424.25,90.95 261.43,0 440.13,-96.8 501.36,-269.91 20.16,-63.66 29.44,-112.18 27.59,-279.19 l -9.83,-521.56 c 0,-9.15 0,-18.8 0,-27.55 0,-166.78 27.59,-230.68 146.42,-318.46 l -215.86,-249.22 c -94.95,39.77 -179.5,109.76 -219.03,188.39 -29.95,-30.63 -63.63,-60.33 -94.39,-81.8 -75.29,-54.64 -185.31,-85.12 -312.6,-85.12 -345.98,0 -533.96,176.33 -533.96,485.21 0,364.69 252.41,534.8 746.6,534.8 29.71,0 57.81,0 91.49,-3.46 l 0,63.36 c 0,173.27 -33.68,230.94 -183.21,230.94 -128.86,0 -281.85,-63.35 -448.37,-175.9 l -173.13,291.37 c 82.46,51.72 143.19,81.8 252.67,127.15" />
    </g>
  </g>
  <g
     style="font-style:normal;font-weight:normal;font-size:17.5232029px;line-height:1000%;font-family:sans-serif;letter-spacing:0px;word-spacing:0px;fill:#ffffff;fill-opacity:1;stroke:none;stroke-width:1px;stroke-linecap:butt;stroke-linejoin:miter;stroke-opacity:1"
     id="text4190">
    <path
       d="m 5.0116472,32.483794 c -2.7336197,0 -5.011636065852,2.155354 -5.011636065852,6.23826 0,4.065383 2.120307565852,6.255783 5.046682465852,6.255783 1.6296578,0 2.8037124,-0.665881 3.4520709,-1.349286 L 7.6576508,42.559635 c -0.6834049,0.508173 -1.4193794,1.016346 -2.5583876,1.016346 -1.8749827,0 -3.3294086,-1.36681 -3.3294086,-4.853927 0,-3.644826 1.5245187,-4.87145 3.3469318,-4.87145 0.8411137,0 1.5770882,0.280371 2.330586,0.893683 L 8.3585789,33.675372 C 7.3948028,32.904351 6.5361658,32.483794 5.0116472,32.483794 Z"
       style="font-style:normal;font-variant:normal;font-weight:normal;font-stretch:normal;font-family:'Fira Sans';-inkscape-font-specification:'Fira Sans';fill:#ffffff"
       id="path4271" />
    <path
       d="m 13.50246,35.322553 c -1.033869,0 -2.050214,0.210278 -3.189223,0.630835 l 0.403034,1.174055 c 0.946253,-0.315418 1.80489,-0.49065 2.488295,-0.49065 1.279194,0 1.927552,0.49065 1.927552,1.822413 l 0,0.683405 -1.419379,0 c -2.575911,0 -4.0653834,1.068915 -4.0653834,3.049037 0,1.647181 1.1039614,2.786189 2.9438984,2.786189 1.121485,0 2.102784,-0.420556 2.751143,-1.384333 0.280371,0.911207 0.87616,1.279194 1.804889,1.384333 l 0.367988,-1.121484 C 17.042147,43.68112 16.744253,43.418272 16.744253,42.612205 l 0,-4.223092 c 0,-1.927552 -1.016346,-3.06656 -3.241793,-3.06656 z m 1.629658,4.888973 0,2.120308 c -0.525696,0.963776 -1.226624,1.436902 -2.172877,1.436902 -1.051392,0 -1.594611,-0.578265 -1.594611,-1.664704 0,-1.26167 0.858636,-1.892506 2.558387,-1.892506 l 1.209101,0 z"
       style="font-style:normal;font-variant:normal;font-weight:normal;font-stretch:normal;font-family:'Fira Sans';-inkscape-font-specification:'Fira Sans';fill:#ffffff"
       id="path4273" />
    <path
       d="m 21.456625,35.532831 -1.384333,0 0,9.234728 1.612135,0 0,-6.553678 c 0.613312,-0.981299 1.174055,-1.629658 2.172877,-1.629658 0.700928,0 1.296717,0.403034 1.296717,1.787367 l 0,6.395969 1.612135,0 0,-6.553678 c 0.630835,-0.981299 1.174054,-1.629658 2.172877,-1.629658 0.700928,0 1.296717,0.403034 1.296717,1.787367 l 0,6.395969 1.612135,0 0,-6.623771 c 0,-1.734797 -0.998823,-2.821235 -2.505818,-2.821235 -1.244148,0 -2.085261,0.665881 -2.751143,1.664704 -0.350464,-1.051392 -1.191578,-1.664704 -2.330586,-1.664704 -1.209101,0 -2.050215,0.630835 -2.663527,1.559565 l -0.140186,-1.349287 z"
       style="font-style:normal;font-variant:normal;font-weight:normal;font-stretch:normal;font-family:'Fira Sans';-inkscape-font-specification:'Fira Sans';fill:#ffffff"
       id="path4275" />
    <path
       d="m 36.481402,35.532831 -1.384333,0 0,12.96717 1.612135,-0.192755 0,-4.380801 c 0.595788,0.718452 1.419379,1.051392 2.418202,1.051392 2.383155,0 3.627303,-2.032691 3.627303,-4.836404 0,-2.908851 -0.963777,-4.81888 -3.417025,-4.81888 -1.051392,0 -2.050215,0.508173 -2.73362,1.454426 l -0.122662,-1.244148 z m 0.227802,2.505818 c 0.490649,-0.735974 1.244147,-1.436902 2.225446,-1.436902 1.384333,0 2.085261,1.139008 2.085261,3.539686 0,2.418202 -0.806067,3.522164 -2.278016,3.522164 -0.841114,0 -1.559565,-0.403033 -2.032691,-1.121485 l 0,-4.503463 z"
       style="font-style:normal;font-variant:normal;font-weight:normal;font-stretch:normal;font-family:'Fira Sans';-inkscape-font-specification:'Fira Sans';fill:#ffffff"
       id="path4277" />
    <path
       d="m 50.758433,42.121555 c -0.560742,0.92873 -1.31424,1.594612 -2.313062,1.594612 -0.998823,0 -1.41938,-0.473127 -1.41938,-1.734797 l 0,-6.448539 -1.612134,0 0,6.623771 c 0,1.80489 0.963776,2.821235 2.57591,2.821235 1.314241,0 2.172878,-0.525696 2.873806,-1.647181 l 0.122662,1.436903 1.384333,0 0,-9.234728 -1.612135,0 0,6.588724 z"
       style="font-style:normal;font-variant:normal;font-weight:normal;font-stretch:normal;font-family:'Fira Sans';-inkscape-font-specification:'Fira Sans';fill:#ffffff"
       id="path4279" />
    <path
       d="m 58.206341,35.322553 c -1.910029,0 -3.329408,1.068915 -3.329408,2.523341 0,1.31424 0.788544,2.172877 2.786189,2.698573 1.787367,0.473127 2.24297,0.823591 2.24297,1.787367 0,0.806067 -0.771021,1.349286 -1.980122,1.349286 -0.998822,0 -1.857459,-0.33294 -2.558387,-0.928729 l -0.893684,1.016345 c 0.806068,0.700929 1.927553,1.209101 3.487118,1.209101 1.874982,0 3.644826,-0.87616 3.644826,-2.803712 0,-1.612135 -1.121485,-2.383156 -3.066561,-2.873805 -1.489472,-0.385511 -1.980122,-0.735975 -1.980122,-1.489472 0,-0.735975 0.648359,-1.209101 1.699751,-1.209101 0.858637,0 1.577088,0.262848 2.383156,0.841113 l 0.700928,-1.068915 c -0.87616,-0.665882 -1.839937,-1.051392 -3.136654,-1.051392 z"
       style="font-style:normal;font-variant:normal;font-weight:normal;font-stretch:normal;font-family:'Fira Sans';-inkscape-font-specification:'Fira Sans';fill:#ffffff"
       id="path4281" />
    <path
       d="m 72.845609,32.483794 c -2.73362,0 -5.011636,2.155354 -5.011636,6.23826 0,4.065383 2.120307,6.255783 5.046682,6.255783 1.629658,0 2.803713,-0.665881 3.452071,-1.349286 l -0.841114,-1.068916 c -0.683405,0.508173 -1.419379,1.016346 -2.558387,1.016346 -1.874983,0 -3.329409,-1.36681 -3.329409,-4.853927 0,-3.644826 1.524519,-4.87145 3.346932,-4.87145 0.841114,0 1.577088,0.280371 2.330586,0.893683 l 0.911206,-1.068915 c -0.963776,-0.771021 -1.822413,-1.191578 -3.346931,-1.191578 z"
       style="font-style:normal;font-variant:normal;font-weight:normal;font-stretch:normal;font-family:'Fira Sans';-inkscape-font-specification:'Fira Sans';fill:#ffffff"
       id="path4283" />
    <path
       d="m 79.881998,31.625157 -1.612135,0.192755 0,11.127234 c 0,1.331763 0.665882,2.032691 1.839936,2.032691 0.473127,0 0.92873,-0.105139 1.36681,-0.315417 l -0.420557,-1.121485 c -0.175232,0.07009 -0.367987,0.105139 -0.595788,0.105139 -0.420557,0 -0.578266,-0.245325 -0.578266,-0.735974 l 0,-11.284943 z"
       style="font-style:normal;font-variant:normal;font-weight:normal;font-stretch:normal;font-family:'Fira Sans';-inkscape-font-specification:'Fira Sans';fill:#ffffff"
       id="path4285" />
    <path
       d="m 88.748191,42.121555 c -0.560743,0.92873 -1.31424,1.594612 -2.313063,1.594612 -0.998822,0 -1.419379,-0.473127 -1.419379,-1.734797 l 0,-6.448539 -1.612135,0 0,6.623771 c 0,1.80489 0.963776,2.821235 2.575911,2.821235 1.31424,0 2.172877,-0.525696 2.873805,-1.647181 l 0.122663,1.436903 1.384333,0 0,-9.234728 -1.612135,0 0,6.588724 z"
       style="font-style:normal;font-variant:normal;font-weight:normal;font-stretch:normal;font-family:'Fira Sans';-inkscape-font-specification:'Fira Sans';fill:#ffffff"
       id="path4287" />
    <path
       d="m 95.302416,31.625157 -1.612135,0.192755 0,12.949647 1.419379,0 0.157709,-1.016346 c 0.630836,0.771021 1.436903,1.226624 2.453249,1.226624 2.24297,0 3.627302,-1.945075 3.627302,-4.836404 0,-3.084083 -1.349286,-4.81888 -3.434547,-4.81888 -1.121485,0 -1.980122,0.508173 -2.610957,1.36681 l 0,-5.064206 z m 0,6.413492 c 0.473126,-0.735974 1.139008,-1.436902 2.155354,-1.436902 1.296717,0 2.155354,0.911206 2.155354,3.539686 0,2.523342 -0.92873,3.557211 -2.278017,3.557211 -0.82359,0 -1.559565,-0.508173 -2.032691,-1.244148 l 0,-4.415847 z"
       style="font-style:normal;font-variant:normal;font-weight:normal;font-stretch:normal;font-family:'Fira Sans';-inkscape-font-specification:'Fira Sans';fill:#ffffff"
       id="path4289" />
    <path
       d="m 106.6005,35.322553 c -1.91003,0 -3.32941,1.068915 -3.32941,2.523341 0,1.31424 0.78855,2.172877 2.78619,2.698573 1.78737,0.473127 2.24297,0.823591 2.24297,1.787367 0,0.806067 -0.77102,1.349286 -1.98012,1.349286 -0.99882,0 -1.85746,-0.33294 -2.55839,-0.928729 l -0.89368,1.016345 c 0.80607,0.700929 1.92755,1.209101 3.48712,1.209101 1.87498,0 3.64482,-0.87616 3.64482,-2.803712 0,-1.612135 -1.12148,-2.383156 -3.06656,-2.873805 -1.48947,-0.385511 -1.98012,-0.735975 -1.98012,-1.489472 0,-0.735975 0.64836,-1.209101 1.69975,-1.209101 0.85864,0 1.57709,0.262848 2.38316,0.841113 l 0.70093,-1.068915 c -0.87616,-0.665882 -1.83994,-1.051392 -3.13666,-1.051392 z"
       style="font-style:normal;font-variant:normal;font-weight:normal;font-stretch:normal;font-family:'Fira Sans';-inkscape-font-specification:'Fira Sans';fill:#ffffff"
       id="path4291" />
  </g>
</svg>
